<?xml version="1.0" encoding="utf-8"?>
<!-- Generator: Adobe Illustrator 26.1.0, SVG Export Plug-In . SVG Version: 6.00 Build 0)  -->
<svg version="1.1" id="Layer_1" xmlns="http://www.w3.org/2000/svg" xmlns:xlink="http://www.w3.org/1999/xlink" x="0px" y="0px"
	 viewBox="0 0 54.3 21.2" style="enable-background:new 0 0 54.3 21.2;" xml:space="preserve">
<path d="M9.3,8.6c0,0,0,0.1,0.1,0.1c0,0.1,0,0.1,0,0.1H5.2l0,0l0,0l0.1,0.1c0,0.1,0,0.1,0,0.1C5.2,9.4,5.1,9.6,5,9.8
	c0,0.2-0.1,0.5-0.1,0.7l0,0l0,0c0.4-0.1,0.7-0.2,1-0.4C6.2,10,6.4,9.9,6.5,9.8c0.1-0.1,0.1-0.1,0.2-0.2c0-0.1,0.1-0.1,0.1-0.2l0,0
	l0,0c0,0,0-0.1-0.1-0.1c0,0,0,0,0-0.1l0,0l0,0c0,0,0,0,0.1,0.1c0,0,0,0.1,0.1,0.1c0.1,0.1,0.1,0.2,0.2,0.2c0,0,0.1,0.1,0.1,0.2
	c0.1,0.1,0.1,0.2,0.2,0.3c0,0,0.1,0.1,0.1,0.2l0.1,0.1v0.1c0,0.1,0,0.2,0,0.2c0,0.1-0.1,0.1-0.1,0.2c-0.1,0.2-0.2,0.2-0.3,0.3
	c0,0-0.1,0.1-0.2,0.1s-0.2,0.1-0.3,0.1c-0.1,0-0.2,0.1-0.3,0.1c-0.1,0-0.1,0.1-0.2,0.1s-0.1,0-0.2,0.1c-0.2,0-0.3,0.1-0.5,0.1
	C5.3,11.9,5.2,12,5,12v0.1v0.1c0,0.2,0,0.4,0,0.6c0,0.2,0,0.4,0,0.6c0,0.1-0.1,0.2-0.1,0.3c0,0.1-0.1,0.2-0.1,0.3
	c-0.1,0.1-0.1,0.1-0.2,0.2c-0.1,0-0.2,0-0.3,0s-0.2-0.1-0.3-0.2s-0.2-0.2-0.3-0.3c-0.1-0.1-0.2-0.2-0.2-0.3
	c-0.1-0.1-0.1-0.2-0.2-0.3c0,0-0.1-0.1-0.1-0.2C3,12.9,3,12.6,2.9,12.5c0-0.1-0.1-0.3-0.1-0.4c0-0.1,0-0.2,0-0.3
	c0-0.1,0-0.2,0.1-0.3C3,11.3,3.2,11.1,3.4,11c0.2-0.1,0.4-0.2,0.6-0.2c0-0.4-0.1-0.7-0.1-1c0-0.1,0-0.3,0-0.4s0-0.3,0-0.4H2.3
	c0,0-0.1,0-0.1-0.1c0,0,0-0.1-0.1-0.1C2,8.6,1.9,8.4,1.8,8.2C1.8,8.1,1.7,8,1.7,8c0-0.1-0.1-0.2-0.1-0.2V7.7c0-0.1,0-0.1,0-0.1h7
	c0,0,0.1,0,0.1,0.1l0.1,0.1C8.8,7.9,8.8,8,8.9,8C9,8.1,9,8.1,9.1,8.2C9,8.3,9.1,8.5,9.3,8.6z"/>
<path d="M9,8.6c0,0,0,0.1,0.1,0.1c0,0.1,0,0.1,0,0.1H7.9c0,0.2,0,0.4,0,0.6c0,0.2,0,0.4,0,0.6c0,0.2,0,0.4,0,0.6c0,0.2,0,0.4,0,0.6
	c0,0.2,0,0.4,0,0.6s0,0.4,0,0.6c0,0.2,0,0.4,0,0.6c0,0.2,0,0.4-0.1,0.6c0,0.2-0.1,0.3-0.2,0.4c-0.1,0.1-0.2,0.2-0.4,0.2l0,0l0.7,0.8
	l0,0l-0.9-1c-0.1-0.1-0.3-0.2-0.4-0.3l-0.2-0.2c-0.1,0.1-0.1,0-0.2,0L6,13.6c0,0,0,0,0-0.1l0,0c0.1,0,0.2-0.1,0.3-0.1
	c0.1-0.1,0.1-0.2,0.2-0.3c0.1-0.1,0.1-0.2,0.1-0.3c0-0.1,0.1-0.2,0.1-0.3c0-0.2,0.1-0.4,0.1-0.6s0-0.4,0-0.7c0-0.2,0-0.3,0-0.5
	s0-0.3,0-0.5V8.9H5.4c0,0-0.1,0-0.1-0.1L5.2,8.7C5.1,8.6,5,8.4,4.9,8.2C4.8,8.1,4.7,7.9,4.6,7.8c0,0,0-0.1-0.1-0.1
	c0-0.1,0-0.1,0-0.1h2.2V7.3V7.2l0,0h0.1c0,0,0.1,0,0.1,0.1L7,7.4h1.1c0,0,0.1,0,0.1,0.1c0,0,0,0.1,0.1,0.1c0.1,0.1,0.1,0.1,0.2,0.2
	C8.6,8,8.6,8.1,8.7,8.1c0,0.1,0.1,0.1,0.1,0.2C8.9,8.5,8.9,8.5,9,8.6z"/>
<path d="M12.9,8.6c0,0,0,0.1,0.1,0.1c0,0.1,0,0.1,0,0.1h-2.7c0,0.3,0,0.5,0,0.8v0.8c0,0.2,0,0.4,0,0.6c0,0.2,0,0.4,0,0.6
	c0,0.2,0,0.4,0,0.6c0,0.2,0,0.4,0,0.6c0,0.2,0,0.4,0,0.6s-0.1,0.4-0.1,0.6c0,0.2-0.1,0.3-0.2,0.4c-0.1,0.1-0.2,0.2-0.4,0.3l0,0
	l0.7,0.8h-0.1l-0.9-1l-0.4-0.3c-0.1-0.1-0.1-0.1-0.2-0.2c-0.1-0.1-0.1-0.1-0.2-0.2l-0.1-0.1c0-0.1-0.1-0.1,0-0.1
	c0.1,0,0.2-0.1,0.3-0.1c0.1-0.1,0.1-0.2,0.2-0.3c0.1-0.1,0.1-0.2,0.1-0.3c0-0.1,0-0.2,0.1-0.3c0-0.2,0-0.4,0.1-0.6
	c0-0.2,0-0.4,0-0.6c0-0.2,0-0.3,0-0.5s0-0.3,0-0.5V8.9H7.8c0,0-0.1,0-0.1-0.1L7.6,8.7c0-0.1-0.1-0.1-0.1-0.2
	C7.4,8.4,7.4,8.3,7.3,8.2C7.3,8.1,7.2,8,7.2,8C7.1,7.9,7,7.9,7,7.8c0,0,0-0.1-0.1-0.1c0-0.1,0-0.1,0-0.1h1.7C8.4,7.2,8.2,6.9,8,6.7
	C7.9,6.4,7.7,6.2,7.5,6C7.4,5.8,7.3,5.7,7.2,5.6c-0.1,0-0.3-0.1-0.4-0.2C6.5,5.3,6.2,5.2,5.9,5.3c-0.2,0-0.4,0.1-0.6,0.2l0,0l0,0
	l0,0l0,0c-0.1,0-0.1,0.1-0.2,0.1l0,0l0,0l0,0L5,5.7L4.9,5.8c0,0-0.1,0-0.1,0.1c0,0-0.1,0-0.1,0.1l0,0l0,0C4.3,6.2,4.2,6.3,4.1,6.3
	C3.9,6.4,3.8,6.5,3.7,6.5C3.6,6.7,3.5,6.8,3.3,6.9C3.2,7,3,7.1,2.8,7.2S2.3,7.6,2.1,7.7C2,7.7,1.8,7.8,1.7,7.8s-0.3,0-0.4,0
	c-0.1,0-0.2,0-0.3-0.1S0.7,7.6,0.6,7.4c0,0-0.1-0.1-0.2-0.1C0.3,7.2,0.2,7.2,0.1,7.2L0,7.3l0,0V7.2C0,7.1,0.1,7.1,0.1,7
	c0.1-0.1,0.1-0.1,0.2-0.2c0.1-0.1,0.3-0.3,0.4-0.4l0.1-0.1C1,6.2,1.1,6.2,1.1,6.2c0.1-0.1,0.3-0.1,0.4,0c0.1,0,0.2,0.1,0.3,0.2
	C2,6.4,2,6.5,2.1,6.5c0.1,0,0.1,0.1,0.2,0.1s0.1,0.1,0.2,0.1s0.2,0,0.2,0c0.1,0,0.1,0,0.2-0.1C3,6.6,3,6.5,3.1,6.5
	c0.1,0,0.2-0.1,0.2-0.1c0.1,0,0.1-0.1,0.2-0.1l0,0l0,0l0,0l0,0l0,0l0,0l0.2-0.1c0,0,0.1,0,0.1-0.1c0-0.1,0.1,0,0.1-0.1l0,0l0,0
	c0,0,0,0,0.1,0c0,0,0,0,0.1,0l0.1-0.1c0,0,0.1,0,0.1-0.1l0,0l0,0l0,0c0.1-0.1,0.2-0.1,0.2-0.2c0.5-0.3,0.5-0.4,0.6-0.4
	C5.3,5.1,5.5,5,5.6,4.8C5.7,4.7,5.9,4.6,6,4.5c0.3-0.2,0.5-0.3,0.7-0.4c0.3,0,0.5-0.1,0.7,0c0.2,0,0.4,0.1,0.5,0.2
	c0.2,0.1,0.3,0.2,0.4,0.4c0.4,0.3,0.7,0.6,0.9,1c0.3,0.4,0.5,0.8,0.8,1.1c0,0,0.1,0.1,0.2,0.2c0,0.1,0.1,0.2,0.2,0.3h1.5
	c0,0,0.1,0,0.1,0.1l0.1,0.1c0.1,0.1,0.2,0.3,0.3,0.5c0.1,0.1,0.1,0.1,0.2,0.2C12.8,8.5,12.8,8.6,12.9,8.6z M5.2,5.5L5.2,5.5L5.2,5.5
	L5.2,5.5z"/>
<path d="M31.6,19.4c0,0.1,0.1,0.1,0,0.1C31.7,19.5,31.6,19.5,31.6,19.4c-0.1,0-0.1,0-0.2,0l-0.1-0.1l-0.1-0.1l0,0l0,0
	c-0.2-0.1-0.3-0.1-0.5-0.2c-0.1,0-0.1,0-0.2,0s-0.1,0-0.2,0c-0.3,0-0.5,0-0.8,0c-0.2,0-0.5,0.1-0.7,0.2c-0.3,0.1-0.6,0.2-0.8,0.4
	c-0.3,0.1-0.5,0.3-0.8,0.4s-0.5,0.2-0.8,0.3c-0.3,0.1-0.6,0.1-0.9,0.2c-0.6,0-1.1,0-1.8-0.1c-0.6-0.1-1.1-0.3-1.8-0.6
	c-0.5-0.3-1-0.6-1.6-0.9c-0.5-0.4-1-0.8-1.6-1.2c-0.5-0.4-0.9-0.8-1.5-1.2c-0.1-0.1-0.2-0.2-0.4-0.3c-0.1-0.1-0.2-0.2-0.4-0.3
	l-0.4-0.3l0,0l0,0l0,0c0,0-0.1,0-0.1-0.1c0,0-0.1,0-0.1-0.1c0,0-0.1,0-0.1-0.1c-0.2-0.2-0.5-0.3-0.7-0.5c-0.3-0.1-0.5-0.3-0.8-0.3
	c-0.2,0-0.4-0.1-0.6-0.1c-0.2,0-0.4,0.1-0.6,0.2h-0.1l-0.1-0.1c-0.1-0.1-0.1-0.1-0.2-0.2s-0.1-0.1-0.2-0.2l-0.1-0.1
	c-0.1-0.1-0.1-0.1-0.2-0.2c-0.1-0.1-0.1-0.1-0.1-0.2c0-0.1-0.1-0.1,0-0.1c0.2-0.1,0.4-0.2,0.6-0.3c0.2-0.1,0.4-0.2,0.6-0.3
	c0.7-0.4,1.5-0.9,2.1-1.4c0.2-0.1,0.3-0.2,0.4-0.3c0.1-0.1,0.3-0.2,0.4-0.4c0.1-0.1,0.2-0.2,0.2-0.3c0.1-0.1,0.1-0.2,0.1-0.3
	c-0.3,0-0.5-0.1-0.8,0c-0.5,0.1-1,0.2-1.5,0.5c-0.4,0.3-0.8,0.6-1,1h-0.1c-0.1,0-0.1-0.1-0.1-0.1c-0.1-0.1-0.1-0.1-0.2-0.2
	c0.1-0.4,0-0.5,0-0.5c-0.1-0.1-0.2-0.3-0.3-0.4c0,0,0-0.1-0.1-0.1c0-0.1-0.1-0.1,0-0.1c0.3-0.4,0.7-0.8,1.1-1.1h-2.1
	c0,0-0.1,0-0.1-0.1l-0.1-0.1c-0.1-0.1-0.2-0.3-0.3-0.4c-0.1-0.1-0.1-0.2-0.2-0.2c0-0.1-0.1-0.2-0.1-0.2s0-0.1-0.1-0.1
	c0-0.1,0-0.1,0-0.1h7.4c0,0,0.1,0,0.1,0.1c0,0,0,0.1,0.1,0.1C17.9,8,17.9,8,18,8.1c0.1,0.1,0.1,0.2,0.2,0.2c0,0.1,0.1,0.2,0.1,0.2
	l0.1,0.2v0.1c0,0.1,0,0.1,0,0.1h-2.3C16.2,9,16.2,9,16.3,9.1s0.1,0.1,0.2,0.2c0.1,0.1,0.2,0.2,0.3,0.3c0.1,0.1,0.2,0.2,0.3,0.4
	c0.1,0.1,0.1,0.2,0.2,0.3c0,0.1,0.1,0.2,0.1,0.3c0,0.2,0,0.3-0.1,0.5c-0.1,0.1-0.2,0.3-0.3,0.4c-0.1,0.1-0.3,0.3-0.4,0.4
	c-0.2,0.1-0.3,0.2-0.5,0.3c-0.2,0.1-0.3,0.2-0.5,0.4c-0.2,0.1-0.3,0.2-0.5,0.3c-0.1,0.1-0.3,0.2-0.4,0.3c-0.1,0.1-0.3,0.2-0.4,0.2
	c0.3,0.2,0.7,0.4,1,0.7c0.3,0.2,0.6,0.5,0.9,0.8c0.3,0.3,0.6,0.5,0.9,0.8c0.3,0.3,0.6,0.5,0.9,0.8c0.2,0.1,0.3,0.3,0.5,0.4
	c0.1,0.1,0.3,0.2,0.5,0.3c0.2,0.1,0.3,0.2,0.5,0.3c0.2,0.1,0.3,0.2,0.5,0.3c0.3,0.2,0.7,0.3,1,0.5c0.3,0.1,0.7,0.3,1.1,0.3
	c0.3,0.1,0.7,0.1,1,0.2c0.3,0,0.7,0,1,0s0.6-0.1,0.9-0.2c0.3-0.1,0.6-0.2,0.9-0.4c0.3-0.1,0.6-0.3,0.8-0.4c0.3-0.1,0.6-0.3,0.9-0.4
	c0.2-0.1,0.5-0.1,0.7-0.1c0.3,0,0.5,0,0.8,0.1c0.1,0,0.2,0.1,0.3,0.1c0.1,0,0.2,0.1,0.3,0.2c0.1,0.1,0.2,0.1,0.3,0.2
	s0.2,0.1,0.2,0.2C31.1,18.6,31.3,18.9,31.6,19.4L31.6,19.4z"/>
<path d="M37.5,7.4C37.5,7.6,37.5,7.6,37.5,7.4c0.1,0.1,0.1,0.1,0.1,0.1l0,0h-0.1c-0.1,0-0.2,0-0.3,0.1c-0.1,0-0.2,0.1-0.3,0.2
	C36.8,8,36.7,8,36.6,8.1c-0.1,0.1-0.2,0.1-0.4,0.1c-0.2,0-0.3,0-0.5,0c-0.2,0-0.3-0.1-0.5-0.1c-0.3-0.1-0.6-0.3-0.9-0.5
	c-0.2-0.1-0.4-0.2-0.6-0.4c-0.2-0.1-0.4-0.3-0.5-0.4c-0.1-0.1-0.2-0.2-0.3-0.3c-0.1-0.1-0.2-0.2-0.3-0.3c0,0,0,0-0.1,0
	c0,0,0,0-0.1,0L32.1,6L32,5.9l-0.1-0.1l-0.1-0.1c0,0-0.1,0-0.1-0.1l0,0l-0.1-0.1l-0.1-0.1l0,0l0,0c0,0,0,0-0.1,0c0,0,0,0-0.1,0
	c-0.2-0.1-0.4-0.2-0.5-0.2s-0.3-0.1-0.4-0.1c-0.3,0-0.7,0-1,0.2c-0.2,0.1-0.3,0.2-0.4,0.3S28.6,5.8,28.5,6c-0.2,0.2-0.4,0.4-0.6,0.7
	c-0.2,0.3-0.4,0.5-0.5,0.8l0,0l0,0c0.1,0.1,0.1,0.1,0.2,0.2C27.6,7.9,27.6,8,27.8,8c0,0.1,0.1,0.2,0.1,0.2c0,0.1,0.1,0.2,0.1,0.2
	v0.1c0,0.1,0,0.1,0,0.1h-1.5c0,0.3,0,0.5,0,0.8v0.8c0,0.2,0,0.4,0,0.6s0,0.4,0,0.6c0,0.2,0,0.4,0,0.6c0,0.2,0,0.4,0,0.6s0,0.4,0,0.6
	c0,0.2-0.1,0.4-0.1,0.6c0,0.2-0.1,0.3-0.2,0.4c-0.1,0.1-0.2,0.2-0.4,0.3l0,0l0.7,0.8h-0.1l-0.9-1L25,14.2c-0.1-0.1-0.1-0.1-0.2-0.2
	c-0.1-0.1-0.1-0.1-0.2-0.2l-0.1-0.1c0-0.1-0.1-0.1,0-0.1s0.2-0.1,0.3-0.1c0.1-0.1,0.1-0.2,0.2-0.3c0.1-0.1,0.1-0.2,0.1-0.3
	s0-0.2,0.1-0.3c0-0.2,0-0.4,0.1-0.6c0-0.2,0-0.4,0-0.6s0-0.3,0-0.5c0-0.2,0-0.3,0-0.5V8.9h-1.5c0,0-0.1,0-0.1-0.1c0,0,0-0.1-0.1-0.1
	c-0.1-0.1-0.2-0.3-0.3-0.4c-0.1-0.1-0.1-0.2-0.2-0.2c0-0.1-0.1-0.2-0.1-0.2V7.8V7.7l0,0h2l-0.1-0.1V7.4c0,0,0,0,0.1-0.1
	c0,0,0,0,0.1-0.1c0.2-0.2,0.3-0.4,0.5-0.6C25.8,6.2,26,6,26.1,5.8c0.2-0.2,0.3-0.5,0.5-0.7s0.3-0.4,0.5-0.6s0.3-0.3,0.5-0.4
	c0.2-0.1,0.4-0.2,0.6-0.3c0.3-0.1,0.6,0,0.9,0.1c0.3,0,0.6,0.1,0.9,0.3c0.2,0.1,0.4,0.2,0.5,0.4C30.9,4.6,31,4.8,31.2,5
	c0.1,0.1,0.2,0.2,0.3,0.2c0.1,0.1,0.2,0.2,0.3,0.2l0,0c0,0,0,0,0.1,0c0,0,0,0,0.1,0l0.1,0.1l0.1,0.1l0.1,0.1l0,0l0,0
	c0,0,0.1,0,0.1,0.1c0,0,0.1,0,0.1,0.1L32.6,6l0.1,0.1c0,0,0,0,0.1,0l0,0l0,0c0,0,0.1,0,0.1,0.1c0.1,0,0.2,0.1,0.3,0.1
	s0.2,0.1,0.3,0.1c0.1,0,0.2,0.1,0.3,0.1c0.1,0,0.2,0,0.3,0.1c0.1,0,0.2,0,0.3,0c0.1,0,0.2,0,0.3-0.1c0.1,0,0.2-0.1,0.2-0.1
	c0.1,0,0.1-0.1,0.2-0.1c0.1-0.1,0.3-0.2,0.4-0.2c0.2,0.1,0.4,0.1,0.5,0.1c0.1,0,0.1,0.1,0.2,0.1c0.1,0.1,0.1,0.1,0.2,0.1
	c0.1,0.1,0.2,0.2,0.3,0.2c0.1,0.1,0.2,0.2,0.3,0.3c0,0.2,0.1,0.3,0.1,0.3C37.4,7.3,37.4,7.4,37.5,7.4z M31.3,5.4L31.3,5.4L31.3,5.4z
	"/>
<path d="M35,8.6c0,0,0,0.1,0.1,0.1c0,0.1,0,0.1,0,0.1h-8.4c0,0-0.1,0-0.1-0.1c0,0,0-0.1-0.1-0.1c-0.1-0.1-0.1-0.1-0.2-0.2
	c-0.1-0.1-0.1-0.2-0.2-0.2C26.1,8.1,26,8,25.9,8c-0.1-0.1-0.1-0.2-0.1-0.2V7.7c0-0.1,0-0.1,0-0.1h8.4c0,0,0.1,0,0.1,0.1l0.1,0.1
	c0.1,0.1,0.2,0.3,0.3,0.5c0.1,0.1,0.1,0.1,0.2,0.2C34.9,8.5,35,8.6,35,8.6z M32.7,11.2c0.1,0.1,0.1,0.1,0.2,0.2
	c0.1,0.1,0.1,0.2,0.2,0.2c0,0,0,0.1,0.1,0.1c0,0.1,0,0.1,0,0.1c-0.2,0.2-0.3,0.4-0.6,0.6c-0.2,0.2-0.4,0.3-0.7,0.5
	c-0.3,0.1-0.5,0.2-0.8,0.3c-0.3,0.2-0.6,0.2-0.9,0.2c-0.3,0-0.5-0.1-0.8-0.3c-0.1-0.1-0.3-0.2-0.4-0.3c-0.1-0.1-0.2-0.2-0.3-0.3
	c-0.1-0.1-0.2-0.2-0.3-0.3c-0.1-0.1-0.1-0.2-0.2-0.2C28,11.9,28,11.8,28,11.8c0-0.4,0-0.6,0.1-0.8c0-0.2,0.1-0.3,0.2-0.5l0,0l0,0
	h-0.2c0,0-0.1,0-0.1-0.1l-0.1-0.1c-0.1-0.1-0.1-0.1-0.2-0.2s-0.1-0.1-0.2-0.2c-0.1-0.1-0.1-0.2-0.2-0.2c-0.1-0.1-0.1-0.2-0.2-0.2
	l0,0V9.3V9.2l0,0c0.3,0,0.5,0,0.8,0c0.3,0,0.5,0,0.8,0s0.5,0,0.8,0c0.2,0,0.5,0,0.7,0.1c0,0,0.1,0,0.1,0.1c0,0,0,0.1,0.1,0.1
	c0.1,0.1,0.2,0.3,0.4,0.4C31,10,31,10,31.1,10.2c0.1,0.1,0.1,0.2,0.2,0.2c-0.1,0-0.1,0-0.1,0v0.1l0,0c-0.1,0-0.2,0.1-0.3,0.1
	c-0.1,0-0.2,0.1-0.3,0.2c-0.2,0.1-0.4,0.2-0.5,0.3c-0.2,0.1-0.3,0.3-0.5,0.4c-0.1,0.1-0.2,0.1-0.2,0.2c-0.1,0.1-0.1,0.2-0.2,0.3l0,0
	l0,0c0.3,0,0.6,0,0.9,0c0.3-0.1,0.5-0.2,0.8-0.3c0.2-0.1,0.5-0.3,0.7-0.5c0.2-0.2,0.4-0.4,0.6-0.6l0,0c0,0,0,0,0.1,0.1
	c0,0,0,0.1,0.1,0.1C32.5,10.9,32.6,11.1,32.7,11.2L32.7,11.2z"/>
<path d="M34.5,8.6c0,0,0,0.1,0.1,0.1c0,0.1,0,0.1,0,0.1h-1.2c0,0.2,0,0.4,0,0.6c0,0.2,0,0.4,0,0.6c0,0.2,0,0.4,0,0.6
	c0,0.2,0,0.4,0,0.6c0,0.2,0,0.4,0,0.6s0,0.4,0,0.6c0,0.2,0,0.4,0,0.6c0,0.2,0,0.4-0.1,0.6c0,0.2-0.1,0.3-0.2,0.4
	c-0.1,0.1-0.2,0.2-0.4,0.2l0,0l0.7,0.8l0,0l-0.9-1c-0.1-0.1-0.3-0.2-0.4-0.3l-0.2-0.2c-0.1-0.1-0.1-0.1-0.2-0.2l-0.1-0.1
	c0,0,0,0,0-0.1l0,0c0.1,0,0.2-0.1,0.3-0.1c0.1-0.1,0.1-0.2,0.2-0.3s0.1-0.2,0.1-0.3s0.1-0.2,0.1-0.3c0-0.2,0.1-0.4,0.1-0.6
	s0-0.4,0-0.7c0-0.2,0-0.3,0-0.5s0-0.3,0-0.5V8.9h-1.2c0,0-0.1,0-0.1-0.1l-0.1-0.1c-0.1-0.1-0.2-0.3-0.3-0.5
	c-0.1-0.2-0.2-0.3-0.3-0.5c0,0,0-0.1-0.1-0.1c0-0.1,0-0.1,0-0.1h2.1V7.3V7.2l0,0h0.1c0,0,0.1,0,0.1,0.1l0.1,0.1h1.1
	c0,0,0.1,0,0.1,0.1c0,0,0,0.1,0.1,0.1C34,7.8,34,7.8,34.1,7.9c0.1,0.1,0.1,0.2,0.2,0.2c-0.1,0.1,0,0.2,0,0.3
	C34.4,8.5,34.4,8.5,34.5,8.6z"/>
<path d="M54.3,19.4c0,0.1,0.1,0.1,0,0.1C54.3,19.5,54.3,19.5,54.3,19.4c-0.1,0-0.1,0-0.2,0l-0.1-0.1l-0.1-0.1l0,0l0,0
	c-0.2-0.1-0.3-0.1-0.5-0.2c-0.1,0-0.1,0-0.2,0s-0.1,0-0.2,0c-0.3,0-0.5,0-0.8,0c-0.2,0-0.5,0.1-0.7,0.2c-0.3,0.1-0.6,0.2-0.8,0.4
	c-0.3,0.1-0.5,0.3-0.8,0.4s-0.5,0.2-0.8,0.3c-0.3,0.1-0.6,0.1-0.9,0.2c-0.6,0-1.1,0-1.8-0.1c-0.6-0.1-1.1-0.3-1.8-0.6
	c-0.5-0.3-1-0.6-1.6-0.9c-0.5-0.4-1-0.8-1.6-1.2c-0.5-0.4-0.9-0.8-1.5-1.2c-0.1-0.1-0.2-0.2-0.4-0.3c-0.1-0.1-0.2-0.2-0.4-0.3
	l-0.4-0.3l0,0l0,0l0,0c0,0-0.1,0-0.1-0.1c0,0-0.1,0-0.1-0.1c0,0-0.1,0-0.1-0.1c-0.2-0.2-0.5-0.3-0.7-0.5c-0.3-0.1-0.5-0.3-0.8-0.3
	c-0.2,0-0.4-0.1-0.6-0.1c-0.2,0-0.4,0.1-0.6,0.2h-0.1l-0.1-0.1c-0.1-0.1-0.1-0.1-0.2-0.2c-0.1-0.1-0.1-0.1-0.2-0.2l-0.1-0.1
	c-0.1-0.1-0.1-0.1-0.2-0.2c-0.1-0.1-0.1-0.1-0.1-0.2c0-0.1-0.1-0.1,0-0.1c0.2-0.1,0.4-0.2,0.6-0.3c0.2-0.1,0.4-0.2,0.6-0.3
	c0.7-0.4,1.5-0.9,2.1-1.4c0.2-0.1,0.3-0.2,0.4-0.3c0.2-0.4,0.3-0.5,0.5-0.6c0.1-0.1,0.2-0.2,0.2-0.3C39,9.9,39,9.8,39,9.7
	c-0.3,0-0.5-0.1-0.8,0c-0.5,0.1-1,0.2-1.5,0.5c-0.4,0.3-0.8,0.6-1,1h-0.1c-0.1,0-0.1-0.1-0.1-0.1c-0.1-0.1-0.1-0.1-0.2-0.2
	c-0.1-0.1-0.1-0.1-0.2-0.2c-0.1-0.1-0.2-0.3-0.3-0.4c0,0,0-0.1-0.1-0.1c0-0.1-0.1-0.1,0-0.1c0.3-0.4,0.7-0.8,1.1-1.1h-2.1
	c0,0-0.1,0-0.1-0.1l-0.1-0.1c-0.1-0.1-0.2-0.3-0.3-0.4c-0.1-0.1-0.1-0.2-0.2-0.2c0-0.1-0.1-0.2-0.1-0.2s0-0.1-0.1-0.1
	c0-0.1,0-0.1,0-0.1h7.4c0,0,0.1,0,0.1,0.1c0,0,0,0.1,0.1,0.1c0.1-0.2,0.2-0.2,0.2-0.1c0.1,0.1,0.1,0.2,0.2,0.2
	c0,0.1,0.1,0.2,0.1,0.2L41,8.5v0.1c0,0.1,0,0.1,0,0.1h-2.3c0.1,0.1,0.1,0.1,0.2,0.2C39,9,39,9,39.1,9.1c0.1,0.1,0.2,0.2,0.3,0.3
	c0.1,0.1,0.2,0.2,0.3,0.4c0.1,0.1,0.1,0.2,0.2,0.3c0,0.1,0.1,0.2,0.1,0.3c0,0.2,0,0.3-0.1,0.5c-0.1,0.1-0.2,0.3-0.3,0.4
	c-0.1,0.1-0.3,0.3-0.4,0.4c-0.2,0.1-0.3,0.2-0.5,0.3c-0.2,0.1-0.3,0.2-0.5,0.4c-0.2,0.1-0.3,0.2-0.5,0.3c-0.1,0.1-0.3,0.2-0.4,0.3
	c-0.1,0.1-0.3,0.2-0.4,0.2c0.3,0.2,0.7,0.4,1,0.7c0.3,0.2,0.6,0.5,0.9,0.8c0.3,0.3,0.6,0.5,0.9,0.8s0.6,0.5,0.9,0.8
	c0.2,0.1,0.3,0.3,0.5,0.4c0.1,0.1,0.3,0.2,0.5,0.3s0.3,0.2,0.5,0.3s0.3,0.2,0.5,0.3c0.3,0.2,0.7,0.3,1,0.5c0.3,0.1,0.7,0.3,1.1,0.3
	c0.3,0.1,0.7,0.1,1,0.2c0.3,0,0.7,0,1,0c0.3,0,0.6-0.1,0.9-0.2c0.3-0.1,0.6-0.2,0.9-0.4c0.3-0.1,0.6-0.3,0.8-0.4
	c0.3-0.1,0.6-0.3,0.9-0.4c0.2-0.1,0.5-0.1,0.7-0.1c0.3,0,0.5,0,0.8,0.1c0.1,0,0.2,0.1,0.3,0.1s0.2,0.1,0.3,0.2
	c0.1,0.1,0.2,0.1,0.3,0.2c0.1,0.1,0.2,0.1,0.2,0.2C53.7,18.6,53.9,18.9,54.3,19.4L54.3,19.4z"/>
<path d="M39.2,7.2c0,0.1,0,0.2,0,0.2c0,0.1,0,0.2,0,0.2s0,0,0,0.1c0,0.1,0,0.1,0,0L39,7.2V7.1V7l0,0l0,0l0,0V6.9
	c-0.1-0.1-0.2-0.3-0.2-0.4c-0.3-0.2-0.5-0.3-0.6-0.4C38,6,37.9,6,37.8,5.9s-0.2-0.1-0.3-0.1l0,0l0,0c0.1,0.1,0.1,0.1,0.2,0.2
	c0.1,0.1,0.1,0.1,0.2,0.2L38,6.4l0.1,0.1l0,0l0,0l0.1,0.1l0.1,0.1c0.1,0.2,0.2,0.4,0.3,0.5c0,0.1,0.1,0.1,0.1,0.2
	c0,0.1,0.1,0.1,0.1,0.2v0.1l0,0l-0.1-0.1c0,0-0.1-0.1-0.1-0.2c0,0,0,0-0.1-0.1c0,0,0,0-0.1-0.1l0,0l0,0l0,0l0,0c0,0-0.1-0.1-0.2-0.2
	S38,6.9,37.9,6.8c-0.2-0.1-0.3-0.1-0.5-0.1c-0.2,0-0.3,0-0.5,0c-0.1,0-0.2,0-0.3,0c-0.1,0-0.2,0-0.3,0h-0.1h-0.1c-0.2,0-0.3,0-0.5,0
	s-0.3,0-0.5,0c-0.4,0-0.9,0.1-1.4,0.1c-0.2,0-0.4,0-0.6,0c-0.2,0-0.4-0.1-0.6-0.1c-0.1,0-0.1-0.1-0.2-0.1S32.1,6.5,32,6.4
	c-0.1-0.1-0.2-0.2-0.3-0.4c-0.1-0.1-0.2-0.3-0.2-0.4c-0.1-0.1-0.2-0.3-0.2-0.4c0,0-0.1-0.1-0.1-0.3l0,0l0,0c0,0,0,0,0.1,0.1l0.1,0.1
	c0,0.1,0.1,0.1,0.1,0.2c0,0,0,0,0.1,0.1h0.1c0.2,0.1,0.3,0.1,0.5,0.1s0.3,0,0.5,0.1c0.4,0,0.8,0,1.2,0c0.4,0,0.8-0.1,1.2-0.1
	c0.1,0,0.2,0,0.3,0c0.1,0,0.2,0,0.3,0c0.1,0,0.2,0,0.3,0c0.1,0,0.2,0,0.3,0h-0.1h-0.1c-0.1,0-0.2,0-0.2-0.1c-0.1,0-0.2,0-0.2-0.1
	h-0.2c-0.1,0-0.1,0-0.2,0c-0.2,0-0.4-0.1-0.6-0.1s-0.4-0.1-0.6-0.1c-0.4-0.1-0.8-0.2-1.2-0.3c-0.7-0.4-1.1-0.6-1.5-0.8
	c-0.2-0.1-0.3-0.2-0.5-0.3c-0.1-0.1-0.3-0.2-0.4-0.4c-0.1-0.1-0.1-0.2-0.2-0.3c0-0.1-0.1-0.2-0.1-0.3c0,0-0.1-0.2-0.1-0.4
	S30,1.7,30,1.5s0-0.4,0-0.6l0,0l0,0c0,0,0,0,0,0.1c0.1,0.2,0.1,0.3,0.1,0.3c0,0.1,0,0.2,0.1,0.2l0,0l0,0c0.1,0.1,0.1,0.2,0.2,0.2
	c0.1,0.1,0.3,0.2,0.4,0.3s0.3,0.2,0.5,0.2c0.4,0.2,0.8,0.3,1.2,0.4C33.1,2.8,33.5,2.9,34,3c0.2,0,0.4,0.1,0.5,0.1
	c0.2,0,0.4,0.1,0.5,0.1c0.2,0,0.4,0.1,0.6,0.1c0.2,0.1,0.4,0.1,0.6,0.1c0.3,0.1,0.6,0.2,1,0.3c0.3,0.1,0.6,0.3,0.8,0.5
	c0.1,0.1,0.2,0.2,0.3,0.4c0.1,0.1,0.1,0.3,0.2,0.4c0,0.1,0.1,0.2,0.1,0.2c0,0.1,0.1,0.2,0.1,0.2v0.1v0.1v0.1l0,0l0,0l0,0l0,0
	C38.9,5.9,39,6,39,6.1c0,0.1,0,0.2,0.1,0.3C39.1,7,39.1,7.1,39.2,7.2z M31.9,6.2L31.9,6.2z M32,6.2L32,6.2L32,6.2L32,6.2z"/>
<path d="M47.6,8.6v0.1c0,0.1,0,0.1,0,0.1h-4.2c0.1,0.2,0.2,0.4,0.3,0.5c0.1,0.2,0.1,0.3,0.1,0.5s-0.1,0.4-0.2,0.5
	c-0.1,0.2-0.2,0.3-0.4,0.4s-0.3,0.2-0.5,0.3c-0.2,0.1-0.4,0.1-0.6,0.3c-0.1,0-0.2,0.1-0.2,0.1c-0.1,0.1-0.1,0.1-0.2,0.2
	c-0.1,0.1-0.1,0.2-0.1,0.3s0,0.2,0,0.3l0,0c0.2,0,0.3,0,0.5,0c0.2,0,0.3-0.1,0.5-0.1c0.2-0.1,0.5-0.1,0.7-0.2
	c0.2-0.1,0.4-0.2,0.6-0.3c0.2-0.1,0.4-0.3,0.6-0.4c0.2-0.2,0.3-0.4,0.3-0.6l0,0c0,0,0,0,0.1,0l0.1,0.1c0.1,0.1,0.1,0.1,0.2,0.2
	c0.1,0.1,0.1,0.1,0.2,0.2c0.1,0.1,0.2,0.3,0.4,0.4c0,0,0,0,0.1,0.1v0.1c0,0.2-0.1,0.3-0.2,0.4c-0.1,0.1-0.2,0.2-0.3,0.3
	s-0.3,0.2-0.4,0.3C45,13,44.8,13,44.7,13.1c-0.1,0-0.2,0.1-0.3,0.1c-0.1,0-0.2,0.1-0.3,0.1c-0.1,0-0.2,0-0.3,0.1
	c-0.1,0-0.2,0.1-0.3,0.1c-0.2,0-0.4,0-0.6,0c-0.1,0-0.2,0-0.3-0.1c-0.1,0-0.2-0.1-0.3-0.2c-0.1,0-0.1-0.1-0.2-0.1
	c0,0-0.1-0.1-0.2-0.2c-0.1-0.1-0.2-0.2-0.3-0.3c-0.1-0.1-0.2-0.2-0.2-0.3c-0.1-0.1-0.2-0.2-0.3-0.3c-0.1-0.1-0.2-0.2-0.2-0.4
	c-0.2,0-0.3-0.2-0.2-0.5c0-0.2,0-0.4,0.2-0.6c0.1-0.1,0.1-0.1,0.2-0.2c0.1-0.1,0.2-0.1,0.3-0.1c0.2-0.1,0.4-0.2,0.6-0.2
	c0.2-0.1,0.4-0.2,0.5-0.3c0.2-0.1,0.3-0.4,0.4-0.6h-1c-0.1,0.1-0.1,0.2-0.2,0.3l0,0c0,0,0,0-0.1,0c0,0-0.1,0-0.1-0.1
	S41.3,9,41.2,8.9h-1.4c0,0-0.1,0-0.1-0.1l-0.1-0.1c-0.1-0.1-0.1-0.2-0.2-0.2c-0.1-0.1-0.1-0.1-0.2-0.2C39.1,8.1,39,8,38.9,7.8
	c0,0,0-0.1-0.1-0.1c0-0.1,0-0.1,0-0.1h1.9c0.1-0.1,0.3-0.2,0.4-0.2c0.2,0,0.3,0,0.5,0c0.1,0,0.3,0.1,0.4,0.2h4.8c0,0,0.1,0,0.1,0.1
	c0,0,0,0.1,0.1,0.1c0.1,0.1,0.2,0.3,0.3,0.4c0,0.1,0.1,0.2,0.1,0.2S47.5,8.6,47.6,8.6z"/>
<path d="M47.2,8.6c0,0,0,0.1,0.1,0.1c0,0.1,0,0.1,0,0.1H46c0,0.2,0,0.4,0,0.6c0,0.2,0,0.4,0,0.6c0,0.2,0,0.4,0,0.6
	c0,0.2,0,0.4,0,0.6c0,0.2,0,0.4,0,0.6s0,0.4,0,0.6c0,0.2,0,0.4,0,0.6c0,0.2,0,0.4-0.1,0.6c0,0.2-0.1,0.3-0.2,0.4
	c-0.1,0.1-0.2,0.2-0.4,0.2l0,0l0.7,0.8l0,0l-0.9-1c-0.1-0.1-0.3-0.2-0.4-0.3l-0.2-0.2c-0.1-0.1-0.1-0.1-0.2-0.2l-0.1-0.1
	c0,0,0,0,0-0.1l0,0c0.1,0,0.2-0.1,0.3-0.1c0.1-0.1,0.1-0.2,0.2-0.3c0.1-0.1,0.1-0.2,0.1-0.3s0.1-0.2,0.1-0.3c0-0.2,0.1-0.4,0.1-0.6
	s0-0.4,0-0.7c0-0.2,0-0.3,0-0.5s0-0.3,0-0.5V8.9h-1.4c0,0-0.1,0-0.1-0.1l-0.1-0.1c-0.1-0.1-0.2-0.3-0.3-0.5C43,8,42.9,7.9,42.8,7.7
	c0,0,0-0.1-0.1-0.1c0-0.1,0-0.1,0-0.1h2.2V7.3V7.2l0,0H45c0,0,0.1,0,0.1,0.1l0.1,0.1h1.1c0,0,0.1,0,0.1,0.1c0,0,0,0.1,0.1,0.1
	c0.1,0.1,0.1,0.1,0.2,0.2C46.9,8,46.9,8.1,47,8.1c0,0.1,0.1,0.1,0.1,0.2C47.1,8.5,47.2,8.5,47.2,8.6z"/>
<path d="M49.7,8.6c0,0,0,0.1,0.1,0.1c0,0.1,0,0.1,0,0.1h-1.2c0,0.2,0,0.4,0,0.6c0,0.2,0,0.4,0,0.6c0,0.2,0,0.4,0,0.6
	c0,0.2,0,0.4,0,0.6c0,0.2,0,0.4,0,0.6s0,0.4,0,0.6c0,0.2,0,0.4,0,0.6c0,0.2,0,0.4-0.1,0.6c0,0.2-0.1,0.3-0.2,0.4
	c-0.1,0.1-0.2,0.2-0.4,0.2l0,0l0.7,0.8l0,0l-0.9-1c-0.1-0.1-0.3-0.2-0.4-0.3L47,13.7c-0.1-0.1-0.1-0.1-0.2-0.2l-0.1-0.1
	c0,0,0,0,0-0.1l0,0c0.1,0,0.2-0.1,0.3-0.1c0.1-0.1,0.1-0.2,0.2-0.3s0.1-0.2,0.1-0.3s0.1-0.2,0.1-0.3c0-0.2,0.1-0.4,0.1-0.6
	s0-0.4,0-0.7c0-0.2,0-0.3,0-0.5s0-0.3,0-0.5V8.9h-1.2c0,0-0.1,0-0.1-0.1L46,8.7c-0.1-0.1-0.2-0.3-0.3-0.5c-0.1-0.2-0.2-0.3-0.3-0.5
	c0,0,0-0.1-0.1-0.1c0-0.1,0-0.1,0-0.1h2.2V7.3V7.2l0,0h0.1c0,0,0.1,0,0.1,0.1l0.1,0.1h1c0,0,0.1,0,0.1,0.1c0,0,0,0.1,0.1,0.1
	c0.1,0.1,0.1,0.1,0.2,0.2c0.1,0.1,0.1,0.2,0.2,0.2c0,0.1,0.1,0.1,0.1,0.2C49.6,8.5,49.7,8.5,49.7,8.6z"/>
</svg>
