<svg id="Layer_1" data-name="Layer 1" xmlns="http://www.w3.org/2000/svg" viewBox="0 0 400.21377 148.8609"><path d="M564.88184,337.55908c.19189.38379.35107.70508.48.96q.38232.86354.19189.86377H533.68164a1.01863,1.01863,0,0,0,.144.24024,1.17463,1.17463,0,0,1,.144.23974,4.94449,4.94449,0,0,1,.57617.86426q.38232.67236.19189.96a19.39409,19.39409,0,0,0-1.91992,5.23194,40.07183,40.07183,0,0,0-.76807,5.52v.0962a.39109.39109,0,0,0,.28809-.0962,39.4658,39.4658,0,0,0,8.064-3.26416A17.35841,17.35841,0,0,0,544.626,346.583a8.42185,8.42185,0,0,0,1.248-1.34424,3.30177,3.30177,0,0,0,.67188-1.63184v-.28808l-.09619-.09571a4.96158,4.96158,0,0,1-.48-.76806,2.35452,2.35452,0,0,1-.28809-.57617c-.06445-.1919-.03271-.31934.09619-.38379.063-.063.1919-.01514.38379.144.19238.16016.35108.3042.48.43164a6.28346,6.28346,0,0,0,.57617.67236q.76758.96021,1.4878,1.91993.72.96019,1.48828,2.01562.67016.96094,1.34375,2.01611.67089,1.05762,1.248,2.11231a11.65825,11.65825,0,0,1,.57618,1.104,4.76621,4.76621,0,0,1,.38379,1.19971,2.82013,2.82013,0,0,1-.23975,1.87207,5.22416,5.22416,0,0,1-1.2002,1.48828,12.16933,12.16933,0,0,1-1.87207,1.53565q-1.00781.67309-2.064,1.248-1.05762.57642-2.208,1.104-1.15211.52881-2.30371,1.0083-.86425.38452-1.728.71972a11.66831,11.66831,0,0,1-1.728.52784q-1.92187.5764-3.83985,1.0083-1.92187.43212-3.84033.91211a4.91275,4.91275,0,0,0,.04834.71972,6.02861,6.02861,0,0,1,.04785.81592q.19116,2.49756.28809,5.08838a22.52257,22.52257,0,0,1-.38428,5.08789q-.28783.96094-.71973,2.11182a9.487,9.487,0,0,1-1.104,2.1123,4.379,4.379,0,0,1-1.63233,1.43994,2.88308,2.88308,0,0,1-2.208.09571,5.71167,5.71167,0,0,1-2.5918-1.53565q-1.05762-1.1521-2.01611-2.40039-.96094-1.24658-1.91992-2.5918-.76978-1.05541-1.4878-2.208-.72-1.15211-1.29638-2.3042a23.53679,23.53679,0,0,1-1.2959-3.11963,10.39016,10.39016,0,0,1-.52783-3.312,21.73585,21.73585,0,0,1,.144-2.4961,8.79176,8.79176,0,0,1,.624-2.3999,8.12006,8.12006,0,0,1,3.936-3.64844,20.23333,20.23333,0,0,1,4.7998-1.82373q-.4812-4.22314-.57617-8.25586-.09668-1.63184-.04785-3.26416.04761-1.6311.24023-3.26416H511.69775q-.38232,0-.76806-.57568a5.59644,5.59644,0,0,0-.57569-.76807q-1.34325-1.6311-2.688-3.55224-.57642-.958-1.15235-1.91993-.57568-.95874-1.15185-1.91992-.19116-.479-.38379-.86426c-.25537-.63867-.31983-.96-.19239-.96H558.5459a1.16085,1.16085,0,0,1,.81592.52832c.28808.35254.49511.59229.624.71973q.76684.96094,1.39209,1.82422.62329.86426,1.19971,1.82373A43.87723,43.87723,0,0,1,564.88184,337.55908Z" transform="translate(-494.03912 -278.90283)"/><path d="M563.24951,337.55908c.1919.38379.35108.70508.48.96q.38233.86354.1919.86377h-9.21582q.09447,2.592.04785,5.13623-.04982,2.54443.04785,5.13575,0,2.30419-.04785,4.60839-.04982,2.30348.04785,4.60791.09448,2.209.24023,4.51172.14356,2.30421.144,4.51221,0,2.49756-.09619,5.04a19.631,19.631,0,0,1-.86377,5.04,12.55491,12.55491,0,0,1-1.68018,3.40771,4.71376,4.71376,0,0,1-3.12012,1.96826h-.09619l5.56836,6.144-.38428.38379-7.1997-7.77588a23.907,23.907,0,0,1-2.97608-2.688l-1.53613-1.53613q-.76685-.76684-1.53613-1.63184-.38233-.47973-.57569-.76807c-.12744-.19189-.25488-.38427-.38427-.57617-.12745-.19189-.1587-.28808-.09571-.28808a4.95329,4.95329,0,0,0,2.39991-1.15186,7.20718,7.20718,0,0,0,1.584-2.064,11.48183,11.48183,0,0,0,.96-2.54395q.33765-1.34327.52783-2.5918a38.53121,38.53121,0,0,0,.43213-5.13623q.04761-2.63891-.144-5.23193-.09667-1.91969-.23975-3.88818-.14429-1.96656-.144-3.8877v-8.73633h-9.69629a1.155,1.155,0,0,1-.81592-.52783c-.28808-.35107-.49512-.59082-.624-.72021a33.36867,33.36867,0,0,1-2.5918-3.64795,43.65463,43.65463,0,0,1-2.3042-3.83985c-.19189-.31933-.35107-.60742-.48-.86426-.25488-.63867-.31933-.96-.19189-.96h16.60791v-.91162a4.62606,4.62606,0,0,0-.09571-.91211c0-.063.09571-.04785.2876.04786a4.86081,4.86081,0,0,1,.624.38427q.33545.24024.8164.52783a10.89286,10.89286,0,0,0,1.05567.86377h8.73632c.25489,0,.52784.19239.81592.57618a8.05573,8.05573,0,0,0,.624.76806q.67016.86426,1.29589,1.77588.62329.91333,1.2959,1.87207.57569.86426,1.2002,1.82422A20.14309,20.14309,0,0,1,563.24951,337.55908Z" transform="translate(-494.03912 -278.90283)"/><path d="M593.00928,337.55908c.19189.38379.35058.70508.48.96q.38232.86354.19189.86377h-20.064q.09448,3.074.0957,6.04834V351.479q0,2.30421-.04785,4.60791-.0498,2.30421.04785,4.60791.19116,2.20973.28809,4.51221.09447,2.30419.09619,4.51172.09449,2.49756-.04834,5.04a21.15818,21.15818,0,0,1-.91162,5.04,10.68739,10.68739,0,0,1-1.63233,3.45605,4.83412,4.83412,0,0,1-3.168,2.0166h-.0957l5.66406,6.04688-.48.38476-7.20019-7.77636-2.87989-2.5918q-.76756-.76758-1.53613-1.584-.76758-.81446-1.53613-1.68018a7.13165,7.13165,0,0,1-.67188-.76807q-.57567-.76684-.38378-.86377a4.65926,4.65926,0,0,0,2.35156-1.15185,7.67075,7.67075,0,0,0,1.53613-2.064,11.4855,11.4855,0,0,0,.96-2.54443q.33765-1.34253.52832-2.5918a38.11127,38.11127,0,0,0,.43164-5.08789q.04761-2.592-.144-5.18408-.09449-2.01562-.1919-3.98389-.09447-1.96654-.0957-3.88818V339.38281H554.0332a1.15322,1.15322,0,0,1-.81591-.52783c-.28809-.35107-.49512-.59082-.624-.72021q-.67089-.86354-1.29638-1.77588-.62329-.91114-1.2959-1.87207-.57569-.958-1.19971-1.87207a13.0365,13.0365,0,0,1-1.104-1.96778c-.19239-.31933-.35108-.60742-.48-.86426-.25538-.63867-.31983-.96-.19239-.96h12.96q-2.11011-3.071-4.07959-6.0957a47.42962,47.42962,0,0,0-4.46435-5.8081,22.19455,22.19455,0,0,0-2.44776-2.44776,13.103,13.103,0,0,0-2.92822-1.87207,11.43,11.43,0,0,0-6.43213-1.24805,17.78657,17.78657,0,0,0-5.08789,1.728,2.49246,2.49246,0,0,1-.33594.144,2.91292,2.91292,0,0,0-.33593.144c-.063.06445-.11084.0957-.144.0957-.03125,0-.07959.0332-.144.09619a9.36912,9.36912,0,0,0-1.53613,1.05567,1.56684,1.56684,0,0,0-.38379.28808,1.1762,1.1762,0,0,0-.28809.1919.27034.27034,0,0,1-.19189.09619q-.479.38452-.86377.67187a7.43253,7.43253,0,0,0-.76807.67237,6.083,6.083,0,0,0-.8164.57568q-.33472.28784-.71973.57617a3.35184,3.35184,0,0,1-.38428.33594,3.84653,3.84653,0,0,0-.38379.33594,25.44063,25.44063,0,0,0-2.01611,1.63183,24.50481,24.50481,0,0,1-2.01562,1.63233q-1.72853,1.34546-3.5044,2.688a41.08691,41.08691,0,0,1-3.6958,2.49609,39.83977,39.83977,0,0,1-6.144,3.168,14.29376,14.29376,0,0,1-3.02393.96,8.52292,8.52292,0,0,1-3.12012,0,5.97906,5.97906,0,0,1-2.3999-.86426q-1.05541-.67017-2.11181-1.34375a20.73341,20.73341,0,0,0-1.87208-1.104,3.88766,3.88766,0,0,0-2.16015-.43213l-.86377.28808q-.47974.19337-.144-.33593c.22461-.35108.33593-.49512.33593-.43213A8.236,8.236,0,0,1,495.665,325.271q.67309-.67091,1.34424-1.44,1.63329-1.6311,3.55176-3.26416.4812-.479,1.104-1.00781a3.54452,3.54452,0,0,1,1.2959-.72021,3.49223,3.49223,0,0,1,3.02392-.144,20.79867,20.79867,0,0,1,2.73633,1.48829q.67236.4812,1.39209.91162a9.08922,9.08922,0,0,0,1.48779.72021,5.88,5.88,0,0,0,1.82422.48,9.55487,9.55487,0,0,0,1.91992,0,17.309,17.309,0,0,0,1.728-.48,12.37868,12.37868,0,0,0,1.63184-.67187q.96093-.38234,1.87207-.76807a17.577,17.577,0,0,0,1.77588-.86426.97139.97139,0,0,1,.33593-.23974,2.49266,2.49266,0,0,0,.33594-.144.086.086,0,0,1,.09619-.09619.98424.98424,0,0,0,.23975-.144,1.22978,1.22978,0,0,1,.24023-.14356l1.728-1.15234q.28785-.19116.624-.43164c.2251-.15918.43213-.30322.624-.43213a1.05044,1.05044,0,0,0,.28808-.19189.28371.28371,0,0,1,.1919-.0962c.12891-.12744.27295-.25488.43213-.38378a4.953,4.953,0,0,0,.43164-.38428q.38525-.28785.76806-.57617c.25635-.1919.51319-.38379.76807-.57569a3.78451,3.78451,0,0,1,.38379-.33593,3.35463,3.35463,0,0,0,.38428-.33594h.09619q.96021-.86425,1.91992-1.68018.96021-.81446,2.01563-1.584,1.634-1.34327,3.36035-2.688a31.75862,31.75862,0,0,1,3.55176-2.3999,23.47541,23.47541,0,0,1,5.23193-2.40039,11.912,11.912,0,0,1,5.61621-.38379,12.30146,12.30146,0,0,1,4.22412,1.728,21.85635,21.85635,0,0,1,3.55176,2.87989,44.88063,44.88063,0,0,1,6.48,8.44824,72.07365,72.07365,0,0,0,6.09619,8.73584q.19116.19337,1.24805,1.584,1.05468,1.39307,2.01562,2.73584h11.04c.25537,0,.52832.19239.81641.57618a7.97989,7.97989,0,0,0,.624.76806,33.5572,33.5572,0,0,1,2.5918,3.64795,18.6996,18.6996,0,0,1,1.248,1.82422Q592.5288,336.59937,593.00928,337.55908Zm-59.32813-24c.1919-.12744.25635-.17578.1919-.144A.82383.82383,0,0,0,533.68115,313.55908Z" transform="translate(-494.03912 -278.90283)"/><path d="M737.585,420.11914q.57568.67091.28809.96-.19484.19189-.81641-.38379a4.04482,4.04482,0,0,1-.71973-.76855q-.57569-.57568-1.10449-1.15137-.52734-.57716-1.10351-1.15234a3.37264,3.37264,0,0,1-.33594-.19141,2.89424,2.89424,0,0,0-.33594-.19336,17.22939,17.22939,0,0,0-3.83984-1.53516,6.45677,6.45677,0,0,0-1.29688-.24023q-.624-.0498-1.2959-.14453a22.09757,22.09757,0,0,0-6,.24023,32.02523,32.02523,0,0,0-5.71191,1.584,64.54026,64.54026,0,0,0-6.57617,3.07226q-3.21679,1.72852-6.57617,3.36036A54.22264,54.22264,0,0,1,695.584,426.167a34.90044,34.90044,0,0,1-6.959,1.44043,44.07881,44.07881,0,0,1-13.63232-.96094,62.16512,62.16512,0,0,1-13.34424-4.60742,85.53282,85.53282,0,0,1-12.1919-7.10351q-6.14428-4.418-11.8081-9.26465-5.66529-4.84863-11.42383-9.74414-1.43994-1.24952-2.87988-2.39942-1.43994-1.15283-2.87989-2.30468l-2.88037-2.30371a.26922.26922,0,0,1-.19189-.09668.84919.84919,0,0,0-.1919-.14356.69993.69993,0,0,1-.19189-.14355,5.188,5.188,0,0,0-.76807-.48047,5.02453,5.02453,0,0,0-.624-.52735,5.78691,5.78691,0,0,0-.72022-.43261q-2.87988-2.01562-5.95166-3.792a22.9646,22.9646,0,0,0-6.52832-2.54394,16.06357,16.06357,0,0,0-4.752-.43164,11.2497,11.2497,0,0,0-4.56006,1.2959c-.19189.1289-.46484,0-.81592-.38428-.35253-.38379-.59228-.63867-.71972-.76758q-.76979-.76758-1.48828-1.63232-.72-.86354-1.4878-1.728a4.134,4.134,0,0,1-.81591-.91211q-.6255-.81446-1.34424-1.72754a19.20258,19.20258,0,0,1-1.2002-1.68017q-.479-.76758-.2876-.86426,2.49756-1.34327,4.84766-2.63965,2.35181-1.29639,4.65625-2.64014,8.35181-4.99072,15.936-10.56006,1.82226-1.34325,3.55175-2.64013a30.32311,30.32311,0,0,0,3.26416-2.832,11.05908,11.05908,0,0,0,1.77588-2.30371,11.47017,11.47017,0,0,0,1.104-2.59229,19.03768,19.03768,0,0,0-6.33594-.0957,27.993,27.993,0,0,0-10.99219,3.88769,26.47561,26.47561,0,0,0-8.3999,8.01612c-.12891.1289-.40039,0-.81592-.38379-.417-.38428-.65674-.60743-.72021-.67188q-.769-.76758-1.53565-1.63232-.76977-.86354-1.53613-1.728-1.34546-1.6311-2.688-3.55176a2.57241,2.57241,0,0,1-.48-.67236q-.57569-.76685-.38379-1.05567a26.91809,26.91809,0,0,1,9.11963-8.44824h-15.936c-.25488,0-.52783-.19189-.81591-.57568a8.27036,8.27036,0,0,0-.624-.76807,29.334,29.334,0,0,1-2.59179-3.55224q-.6709-.958-1.24805-1.91993-.57642-.95874-1.05615-1.91992c-.1919-.31933-.35108-.60742-.48-.86426-.25489-.63867-.31934-.96-.1919-.96h57.02393a1.03512,1.03512,0,0,1,.76806.52832,6.35857,6.35857,0,0,0,.57618.71973,18.1185,18.1185,0,0,1,1.3916,1.77637q.62329.91332,1.29638,1.87158.57569.96094,1.15186,1.87207.57569.91407,1.15186,1.96826l.38427.96q.38233.86354.1919.86377H618.73682q.76685.76979,1.48779,1.53614.72.76977,1.48779,1.53613,1.24659,1.34546,2.352,2.73584,1.103,1.39306,2.16016,2.92822a15.72753,15.72753,0,0,1,1.34424,2.208,8.13167,8.13167,0,0,1,.76758,2.4956,6.642,6.642,0,0,1-.57569,3.88819,14.91709,14.91709,0,0,1-2.208,3.312,27.52167,27.52167,0,0,1-3.35986,3.02393q-1.8252,1.39307-3.64844,2.73583-2.01562,1.44067-4.03173,2.88038-2.01636,1.43994-4.12793,2.78369-1.53663,1.05762-3.07227,2.01611-1.53661.96094-3.168,1.91992a86.53228,86.53228,0,0,1,7.82422,5.47217q3.791,2.97657,7.43994,6.04736,3.64746,3.07472,7.2959,6.24024,3.64746,3.16845,7.39209,6.24023,1.919,1.63184,3.6958,2.97657,1.77539,1.3418,3.69629,2.6875,1.91895,1.34325,3.83984,2.59179,1.91895,1.24659,3.936,2.40039a84.09733,84.09733,0,0,0,8.208,3.93555,57.34982,57.34982,0,0,0,8.59179,2.78418,48.028,48.028,0,0,0,7.92041,1.24805,35.84364,35.84364,0,0,0,15.26319-2.15918,62.48523,62.48523,0,0,0,6.86523-3.02539q3.35742-1.72705,6.71875-3.50391a36.90086,36.90086,0,0,1,7.00879-2.832,30.24858,30.24858,0,0,1,5.90332-.959,18.96314,18.96314,0,0,1,6,.57618,22.13567,22.13567,0,0,1,2.73633.9121,13.16361,13.16361,0,0,1,2.54394,1.39063,24.94305,24.94305,0,0,1,2.01661,1.63281q.958.86426,1.91992,1.82422a63.28855,63.28855,0,0,1,6.04785,7.48828Z" transform="translate(-494.03912 -278.90283)"/><path d="M745.74219,337.55908c.1914.38379.35156.70508.48047.96q.38379.86354.1914.86377H681.80664a1.03027,1.03027,0,0,1-.76807-.52783,6.717,6.717,0,0,0-.57617-.72021,17.9425,17.9425,0,0,1-1.3916-1.77588q-.62329-.91114-1.29639-1.87207-.57569-.958-1.1997-1.87207a13.03654,13.03654,0,0,1-1.104-1.96778q-.19116-.479-.38427-.86426c-.25489-.63867-.35108-.96-.28809-.96h64.60791q.38379,0,.81641.57618a8.01663,8.01663,0,0,0,.623.76806,33.62979,33.62979,0,0,1,2.59375,3.64795,19.05261,19.05261,0,0,1,1.24805,1.82422Q745.26171,336.59937,745.74219,337.55908Zm-17.47168,19.96778q.67089.86426,1.34472,1.77587.66943.91407,1.24805,1.87207a6.04606,6.04606,0,0,1,.47949.81592q.38234.7207.28809.91211a24.57976,24.57976,0,0,1-4.51172,4.94434,34.948,34.948,0,0,1-5.56836,3.792,26.99941,26.99941,0,0,1-6.38476,2.49561,17.3028,17.3028,0,0,1-6.76758.38427,15.66565,15.66565,0,0,1-6.24024-2.3042,14.54024,14.54024,0,0,1-2.8789-2.688q-1.15284-1.34327-2.209-2.64014-1.05762-1.29566-2.11133-2.73584-.67381-.95874-1.29687-1.87207a22.59914,22.59914,0,0,1-1.19922-1.96777,6.59176,6.59176,0,0,1-.67187-4.22413,9.98846,9.98846,0,0,1,1.91992-3.64795,2.39739,2.39739,0,0,0,.28711-.33593,2.29167,2.29167,0,0,1,.28906-.33594h-1.82422a1.22926,1.22926,0,0,1-.91211-.48c-.28808-.31982-.49609-.543-.624-.67236q-.76758-.86354-1.44043-1.728-.6709-.86352-1.34375-1.72754-.76758-.95874-1.39258-1.82422a18.01906,18.01906,0,0,1-1.19922-1.91992c0,.06445-.04883,0-.14453-.1919-.0957-.19238-.207-.39941-.33594-.624a3.61054,3.61054,0,0,1-.28711-.624c-.06347-.19239-.06347-.28809,0-.28809q3.07325,0,6.09571-.144,3.02343-.14429,6.0957-.24024,3.0703-.09447,6.04785.04834a41.96572,41.96572,0,0,1,5.95215.71973,1.564,1.564,0,0,1,.86328.52832,7.10275,7.10275,0,0,1,.57617.71973,38.06353,38.06353,0,0,1,2.88086,3.45605q.6709.86425,1.34375,1.77588.6709.91407,1.248,1.87207.2871.48194.48047.81592a3.66139,3.66139,0,0,1,.28711.624c.06347.19239.06347.28809,0,.28809a22.70692,22.70692,0,0,0-2.4961,1.05615q-1.15137.57569-2.39941,1.24805-2.21044,1.24878-4.32031,2.63965A25.15373,25.15373,0,0,0,703.502,360.311a12.32555,12.32555,0,0,0-1.82324,1.82373,17.06773,17.06773,0,0,0-1.53613,2.208.38645.38645,0,0,1,.24023.04834c.03125.03272.11133.04785.24024.04785a17.4539,17.4539,0,0,0,6.81543-.38378,29.12233,29.12233,0,0,0,6.43261-2.4961,34.8627,34.8627,0,0,0,5.56739-3.792,24.55818,24.55818,0,0,0,4.51269-4.94434q.09375-.09447.33594.0962.2373.19335.47949.43212a9.48706,9.48706,0,0,1,.624.71973A38.121,38.121,0,0,1,728.27051,357.52686Z" transform="translate(-494.03912 -278.90283)"/><path d="M741.61328,337.55908c.19141.38379.35156.70508.48047.96q.38087.86354.19141.86377h-9.21582q.0952,2.592.04785,5.13623-.04982,2.54443.04785,5.13575,0,2.30419-.04785,4.60839-.04982,2.30348.04785,4.60791.09522,2.209.24023,4.51172.14357,2.30421.14356,4.51221,0,2.49756-.09571,5.04a19.6504,19.6504,0,0,1-.86328,5.04,12.55606,12.55606,0,0,1-1.68066,3.40771,4.71491,4.71491,0,0,1-3.12012,1.96826h-.0957l5.56836,6.144-.38477.38379-7.19922-7.77588a23.84286,23.84286,0,0,1-2.97656-2.688q-.76758-.76758-1.53613-1.53613-.76611-.76684-1.53613-1.63184-.38234-.47973-.57618-.76807c-.12695-.19189-.2539-.38427-.38378-.57617-.12793-.19189-.15918-.28808-.09571-.28808a4.94946,4.94946,0,0,0,2.39942-1.15186,7.19847,7.19847,0,0,0,1.584-2.064,11.48433,11.48433,0,0,0,.96094-2.54395q.33692-1.34327.52734-2.5918a38.36934,38.36934,0,0,0,.43164-5.13623q.04835-2.63891-.14355-5.23193-.09669-1.91969-.23926-3.88818-.145-1.96656-.14453-3.8877v-8.73633h-9.69629a1.1525,1.1525,0,0,1-.81543-.52783c-.28906-.35107-.49609-.59082-.625-.72021a33.569,33.569,0,0,1-2.5918-3.64795A43.88431,43.88431,0,0,1,707.917,330.647c-.19238-.31933-.35058-.60742-.47949-.86426-.25586-.63867-.32031-.96-.19238-.96h16.6084v-.91162a4.62606,4.62606,0,0,0-.09571-.91211c0-.063.09571-.04785.28711.04786a4.8615,4.8615,0,0,1,.624.38427q.33544.24024.8164.52783a10.95462,10.95462,0,0,0,1.05567.86377h8.73632c.25391,0,.52735.19239.81641.57618a8.01466,8.01466,0,0,0,.62305.76806q.67089.86426,1.29687,1.77588c.41406.60889.84766,1.23291,1.29492,1.87207.38477.57617.78321,1.18506,1.20118,1.82422A20.24216,20.24216,0,0,1,741.61328,337.55908Z" transform="translate(-494.03912 -278.90283)"/><path d="M893.86914,420.11914q.57569.67091.28809.96-.19484.19189-.81641-.38379a4.04482,4.04482,0,0,1-.71973-.76855q-.57568-.57568-1.10449-1.15137-.52881-.57716-1.10351-1.15234a3.37264,3.37264,0,0,1-.33594-.19141,2.97881,2.97881,0,0,0-.33594-.19336,17.2187,17.2187,0,0,0-3.84082-1.53516,6.43533,6.43533,0,0,0-1.2959-.24023q-.62549-.0498-1.2959-.14453a22.09757,22.09757,0,0,0-6,.24023,32.00246,32.00246,0,0,0-5.71191,1.584,64.3446,64.3446,0,0,0-6.57617,3.07226q-3.21679,1.72852-6.57617,3.36036a54.27328,54.27328,0,0,1-6.5752,2.59179,34.93884,34.93884,0,0,1-6.96,1.44043,44.082,44.082,0,0,1-13.63281-.96094,62.17028,62.17028,0,0,1-13.34375-4.60742,85.5,85.5,0,0,1-12.19141-7.10351q-6.145-4.418-11.80859-9.26465-5.66456-4.84863-11.42383-9.74414-1.43994-1.24952-2.87988-2.39942-1.43994-1.15283-2.87989-2.30468l-2.87988-2.30371a.271.271,0,0,1-.19238-.09668.84064.84064,0,0,0-.19238-.14356.69091.69091,0,0,1-.19141-.14355,5.14209,5.14209,0,0,0-.76856-.48047,4.98906,4.98906,0,0,0-.624-.52735,5.78067,5.78067,0,0,0-.71973-.43261q-2.87988-2.01562-5.95214-3.792a22.95884,22.95884,0,0,0-6.52735-2.54394,16.06357,16.06357,0,0,0-4.752-.43164,11.2497,11.2497,0,0,0-4.56055,1.2959c-.1914.1289-.46484,0-.81543-.38428-.35254-.38379-.59277-.63867-.7207-.76758q-.769-.76758-1.48731-1.63232-.72069-.86354-1.48828-1.728a4.14358,4.14358,0,0,1-.8164-.91211q-.6255-.81446-1.34375-1.72754a19.30487,19.30487,0,0,1-1.2002-1.68017q-.479-.76758-.28808-.86426,2.49755-1.34327,4.84863-2.63965t4.65527-2.64014q8.35254-4.99072,15.93653-10.56006,1.82226-1.34325,3.55175-2.64013a30.31909,30.31909,0,0,0,3.26368-2.832,11.02867,11.02867,0,0,0,1.77636-2.30371,11.47145,11.47145,0,0,0,1.10449-2.59229,19.03839,19.03839,0,0,0-6.33593-.0957,27.98485,27.98485,0,0,0-10.99219,3.88769,26.46706,26.46706,0,0,0-8.40039,8.01612c-.12891.1289-.40039,0-.81543-.38379-.417-.38428-.65723-.60743-.7207-.67188q-.769-.76758-1.53614-1.63232-.769-.86354-1.53515-1.728-1.34619-1.6311-2.68848-3.55176a2.58513,2.58513,0,0,1-.48047-.67236q-.57569-.76685-.38379-1.05567a26.92431,26.92431,0,0,1,9.12012-8.44824H735.66113c-.25488,0-.52832-.19189-.8164-.57568a8.27036,8.27036,0,0,0-.624-.76807,29.2823,29.2823,0,0,1-2.59179-3.55224q-.67091-.958-1.24805-1.91993c-.38477-.63916-.73438-1.27929-1.05664-1.91992q-.28712-.479-.47949-.86426c-.25489-.63867-.31934-.96-.19239-.96h57.02442a1.03366,1.03366,0,0,1,.76758.52832,6.53058,6.53058,0,0,0,.57617.71973,18.05772,18.05772,0,0,1,1.39258,1.77637q.62254.91332,1.29589,1.87158.57568.96094,1.15137,1.87207.57716.91407,1.15235,1.96826l.38378.96c.25489.57569.32032.86377.19239.86377H775.02051q.76758.76979,1.48828,1.53614c.48047.51318.97461,1.02441,1.48828,1.53613q1.24658,1.34546,2.35156,2.73584,1.103,1.39306,2.16016,2.92822a15.67811,15.67811,0,0,1,1.34375,2.208,8.10633,8.10633,0,0,1,.76855,2.4956,6.646,6.646,0,0,1-.57617,3.88819,14.91709,14.91709,0,0,1-2.208,3.312,27.52562,27.52562,0,0,1-3.36035,3.02393q-1.82373,1.39307-3.64746,2.73583-2.01708,1.44067-4.03222,2.88038-2.01564,1.43994-4.12793,2.78369-1.53663,1.05762-3.07227,2.01611-1.53661.96094-3.168,1.91992a86.46332,86.46332,0,0,1,7.82422,5.47217q3.791,2.97657,7.43945,6.04736,3.64746,3.07472,7.29688,6.24024,3.646,3.16845,7.3916,6.24023,1.91895,1.63184,3.69629,2.97657,1.77539,1.3418,3.69531,2.6875,1.9204,1.34325,3.84082,2.59179,1.91895,1.24659,3.93555,2.40039a84.15036,84.15036,0,0,0,8.208,3.93555,57.34982,57.34982,0,0,0,8.59179,2.78418,48.03856,48.03856,0,0,0,7.91992,1.24805,35.8489,35.8489,0,0,0,15.26465-2.15918,62.37349,62.37349,0,0,0,6.86328-3.02539q3.36036-1.72705,6.72071-3.50391a36.84028,36.84028,0,0,1,7.00781-2.832,30.24641,30.24641,0,0,1,5.9043-.959,18.96856,18.96856,0,0,1,6,.57618,22.23028,22.23028,0,0,1,2.73535.9121,13.16361,13.16361,0,0,1,2.54394,1.39063,24.94305,24.94305,0,0,1,2.01661,1.63281q.958.86426,1.91992,1.82422a63.28855,63.28855,0,0,1,6.04785,7.48828Z" transform="translate(-494.03912 -278.90283)"/><path d="M777.41992,326.519q.19336.96094.28809,1.87207.09668.91333.19238,1.87207,0,.09669-.04785.71973-.04835.62548-.33594.04785l-1.72851-4.03174q-.19044-.479-.38379-.91211c-.12793-.28808-.25489-.59082-.38379-.91211-.06348-.063-.09668-.11084-.09668-.144,0-.03125-.03125-.0791-.09571-.144v-.0957a2.15176,2.15176,0,0,1-.38378-.76807,27.27315,27.27315,0,0,0-1.91993-3.26416,17.59861,17.59861,0,0,0-2.49609-2.87988,13.77813,13.77813,0,0,0-2.06445-1.53614,14.67078,14.67078,0,0,0-2.35157-1.15185c.06446,0,.09571.0166.09571.04785,0,.0332.0332.04834.0957.04834a19.39838,19.39838,0,0,1,1.44043,1.3916q.67236.7207,1.34375,1.48828l1.15234,1.43994.57618.57618.28808.28808c.06446.12891.06446.16016,0,.0957a6.86854,6.86854,0,0,1,.86328,1.05616q.38526.57569.76856,1.15185,1.43994,2.20972,2.49609,4.22412.48046.86427.86328,1.728.38526.86352.67285,1.728c.06446.25635.12891.48.19141.67187q0,.4812-.28808.09619-.57568-.57641-1.10352-1.15234-.52734-.57569-1.10449-1.24805a3.41678,3.41678,0,0,0-.43164-.52783,3.51849,3.51849,0,0,1-.43164-.52783c-.06348,0-.09668-.01514-.09668-.04834,0-.03125-.03125-.04785-.09571-.04785v-.0957l-.38379-.38428a25.4907,25.4907,0,0,0-1.96777-1.77588,8.88505,8.88505,0,0,0-2.16016-1.2959,13.11918,13.11918,0,0,0-3.98437-.91211,24.81921,24.81921,0,0,0-4.08008.04785q-1.05468,0-2.1123.04785-1.0547.04981-2.11133.144h-1.10449a6.83821,6.83821,0,0,0-1.10352.09619q-1.91895.19336-3.93652.38379-2.01562.19409-3.93555.38428a93.8721,93.8721,0,0,1-10.36816.57568q-2.30421-.09449-4.60743-.33594A19.87451,19.87451,0,0,1,726.54,323.543a18.37679,18.37679,0,0,1-1.77637-.81592,5.2288,5.2288,0,0,1-1.4873-1.20019,15.50967,15.50967,0,0,1-2.30371-2.92774q-.95948-1.58423-1.82422-3.21631-.958-1.6311-1.77637-3.26367a17.95538,17.95538,0,0,1-1.2959-3.45605q-.09375-.28785,0-.28809a.39083.39083,0,0,1,.24024.144,5.832,5.832,0,0,0,.52734.43213,10.0748,10.0748,0,0,1,.86426,1.19971q.38525.62549.86426,1.2959a1.98806,1.98806,0,0,0,.624.43213,3.87739,3.87739,0,0,1,.624.33593,19.03467,19.03467,0,0,0,3.8877,1.104,32.55015,32.55015,0,0,0,3.98437.43213,66.76511,66.76511,0,0,0,9.50391-.28809q4.70508-.479,9.4082-.96,1.05762-.09449,2.16016-.09619,1.1045,0,2.15918-.0957,1.15283-.09449,2.30469-.144,1.15135-.04761,2.30371-.04785a3.59453,3.59453,0,0,0-.86426-.24023,3.50636,3.50636,0,0,1-.86426-.23975q-.958-.28857-1.87109-.57617a18.11172,18.11172,0,0,0-1.87207-.48q-.86426-.19116-1.72852-.38428-.86426-.19116-1.72754-.38379-2.20752-.479-4.46387-.96-2.25585-.479-4.46484-.96-4.89551-1.05541-9.83984-2.49609a56.88441,56.88441,0,0,1-9.55176-3.74414,29.30238,29.30238,0,0,1-3.64746-2.15967,15.1518,15.1518,0,0,1-3.07227-2.832,9.09848,9.09848,0,0,1-1.248-2.064c-.32032-.73535-.63868-1.48828-.96094-2.25635a25.43483,25.43483,0,0,1-1.15137-4.31982q-.38232-2.20752-.76855-4.416a27.38862,27.38862,0,0,1-.19141-4.416c0-.1919.0332-.28809.0957-.28809.06446,0,.12891.06446.19239.1919.06445.12939.16113.35254.28808.67236a11.62819,11.62819,0,0,1,.624,1.77588q.24023.91333.43164,1.87207a.43051.43051,0,0,0,.04785.19189.65251.65251,0,0,1,.04883.28809,8.40592,8.40592,0,0,0,1.72754,1.91992,23.67568,23.67568,0,0,0,3.26464,2.3999,24.08431,24.08431,0,0,0,3.64746,1.82422,65.36784,65.36784,0,0,0,9.64747,3.45606q4.94531,1.34546,10.03222,2.4956,2.11231.48193,4.17578.86426,2.06544.38452,4.27246.86377,2.209.48193,4.416,1.104,2.209.6255,4.416,1.2002,3.84081,1.05762,7.67968,2.35205a15.90524,15.90524,0,0,1,6.624,4.272,17.89951,17.89951,0,0,1,2.16015,2.832,31.79059,31.79059,0,0,1,1.67969,3.12012,18.14826,18.14826,0,0,1,.81641,1.87207,18.33569,18.33569,0,0,0,.8164,1.87158,8.15405,8.15405,0,0,1,.33594.76807q.14355.38526.33594.86426a2.15544,2.15544,0,0,0,.38379.76806.19564.19564,0,0,0,.04785.14356.37616.37616,0,0,1,.04785.24023c.06445.12891.0957.17676.0957.144,0-.03174-.03125-.07959-.0957-.144a20.66116,20.66116,0,0,1,.96,2.688q.28857,1.15211.52832,2.35205Q777.22852,325.36816,777.41992,326.519Zm-55.2959-7.96826v0Zm.09668.38428c.06446.1289.11133.2251.14356.28808.03222.06446-.01465-.063-.14356-.38427Z" transform="translate(-494.03912 -278.90283)"/><path d="M842.41211,337.55908l.38379.96q.38232.86354.19238.86377H810.82812a20.3397,20.3397,0,0,1,2.30372,3.74414,8.808,8.808,0,0,1,.86425,4.22412,7.49291,7.49291,0,0,1-1.34375,4.08008,11.44218,11.44218,0,0,1-3.168,3.02393,17.96394,17.96394,0,0,1-4.32032,2.11181,22.98608,22.98608,0,0,0-4.416,2.01612,8.44129,8.44129,0,0,0-1.91993,1.1997,6.08061,6.08061,0,0,0-1.44042,1.77637,6.75885,6.75885,0,0,0-.86329,2.3999,11.49933,11.49933,0,0,0-.09668,2.5918.55155.55155,0,0,0,.09668.38428,14.5809,14.5809,0,0,0,4.08008-.1919q2.0625-.38305,3.9834-.86425,2.7832-.76684,5.47266-1.728a37.45746,37.45746,0,0,0,5.18359-2.30371,18.38378,18.38378,0,0,0,4.46387-3.36035,10.16278,10.16278,0,0,0,2.64062-4.79981c0-.063.09571-.04785.28711.04785a5.39746,5.39746,0,0,1,.57617.33594,7.5369,7.5369,0,0,1,.76856.67236q.76611.769,1.53613,1.53565.76611.76977,1.53516,1.63232a37.99794,37.99794,0,0,1,2.88086,3.45606c.12695.1289.33593.36865.624.71972a1.09938,1.09938,0,0,1,.33594.91211,10.05045,10.05045,0,0,1-1.63281,3.50391,14.5511,14.5511,0,0,1-2.63965,2.78418,21.28892,21.28892,0,0,1-3.26367,2.15967,30.98162,30.98162,0,0,1-3.50391,1.63232q-1.34619.4812-2.68848.91162-1.34472.43214-2.6875.91211-1.24951.28785-2.40039.624a18.57074,18.57074,0,0,1-2.40039.52832,15.928,15.928,0,0,1-4.89551.19189,12.60272,12.60272,0,0,1-2.73632-.67187,9.65351,9.65351,0,0,1-2.44825-1.34424,7.46854,7.46854,0,0,1-1.34375-1.05616q-.57568-.57567-1.248-1.248-1.05762-1.05469-2.01563-2.064-.96093-1.00781-1.91992-2.15967-1.05762-1.34325-2.11231-2.64013a14.0602,14.0602,0,0,1-1.82421-2.92822,13.40421,13.40421,0,0,1-1.24805-6.52784,7.21452,7.21452,0,0,1,1.72851-4.416,8.50169,8.50169,0,0,1,1.72754-1.4878,15.408,15.408,0,0,1,2.01661-1.104q2.30419-1.05542,4.60742-1.92041a14.14927,14.14927,0,0,0,4.22461-2.4956,8.24073,8.24073,0,0,0,3.07129-4.8003H797.292a7.27967,7.27967,0,0,0-1.53613,2.3042q-.09668.09668-.33594-.09619-.24023-.19116-.52734-.38379-.28857-.19116-.76856-.57617a11.67451,11.67451,0,0,0-1.248-1.248H782.50781a1.15428,1.15428,0,0,1-.81543-.52783c-.28808-.35107-.49511-.59082-.624-.72021q-.76758-.958-1.39258-1.82373-.62256-.86427-1.19922-1.82422a43.6633,43.6633,0,0,1-2.30468-3.83985q-.28711-.479-.4795-.86426c-.25488-.63867-.31933-.96-.19238-.96h14.40039a7.58713,7.58713,0,0,1,3.4082-1.53564,9.11,9.11,0,0,1,3.69532.19189,10.54363,10.54363,0,0,1,3.168,1.34375h35.90429c.25488,0,.51172.19239.76758.57618a5.60658,5.60658,0,0,0,.57617.76806q1.34326,1.63331,2.68848,3.55176.57569.96094,1.15137,1.92041Q841.83691,336.59937,842.41211,337.55908Z" transform="translate(-494.03912 -278.90283)"/><path d="M839.627,337.55908c.19239.38379.35157.70508.48047.96q.38232.86354.19141.86377H831.083q.09521,2.592.04785,5.13623-.04835,2.54443.04883,5.13575,0,2.30419-.04883,4.60839-.04835,2.30348.04883,4.60791.09375,2.209.23926,4.51172.145,2.30421.14453,4.51221,0,2.49756-.09668,5.04a19.60953,19.60953,0,0,1-.86328,5.04,12.52814,12.52814,0,0,1-1.68067,3.40771,4.71282,4.71282,0,0,1-3.11914,1.96826H825.707l5.56836,6.144-.38379.38379-7.20019-7.77588a23.981,23.981,0,0,1-2.97657-2.688q-.76611-.76758-1.53515-1.53613-.76758-.76684-1.53614-1.63184-.38232-.47973-.57617-.76807c-.12793-.19189-.25488-.38427-.38379-.57617-.12793-.19189-.15918-.28808-.09668-.28808a4.95275,4.95275,0,0,0,2.40039-1.15186,7.19833,7.19833,0,0,0,1.584-2.064,11.48183,11.48183,0,0,0,.96-2.54395q.33691-1.34327.52832-2.5918a38.69572,38.69572,0,0,0,.43164-5.13623q.04688-2.63891-.14355-5.23193-.09669-1.91969-.24024-3.88818-.14355-1.96656-.14453-3.8877v-8.73633h-9.69531a1.15578,1.15578,0,0,1-.81641-.52783c-.28808-.35107-.49512-.59082-.624-.72021a33.30243,33.30243,0,0,1-2.5918-3.64795,43.40491,43.40491,0,0,1-2.30371-3.83985c-.19238-.31933-.35156-.60742-.48047-.86426-.25488-.63867-.31933-.96-.19238-.96h16.6084v-.91162a4.62606,4.62606,0,0,0-.09571-.91211c0-.063.09571-.04785.28809.04786a4.99844,4.99844,0,0,1,.624.38427q.33546.24024.81543.52783a10.87707,10.87707,0,0,0,1.05664.86377H833.291c.25488,0,.52832.19239.8164.57618a8.13508,8.13508,0,0,0,.624.76806q.67089.86426,1.29589,1.77588.62256.91333,1.2959,1.87207.57568.86426,1.2002,1.82422A20.03171,20.03171,0,0,1,839.627,337.55908Z" transform="translate(-494.03912 -278.90283)"/><path d="M858.82715,337.55908c.19238.38379.35156.70508.48047.96q.38232.86354.1914.86377H850.2832q.09522,2.592.04785,5.13623-.04833,2.54443.04883,5.13575,0,2.30419-.04883,4.60839-.04833,2.30348.04883,4.60791.09375,2.209.23926,4.51172.145,2.30421.14453,4.51221,0,2.49756-.09668,5.04a19.60867,19.60867,0,0,1-.86328,5.04,12.52811,12.52811,0,0,1-1.68066,3.40771,4.71282,4.71282,0,0,1-3.11914,1.96826h-.09668l5.56836,6.144-.38379.38379-7.2002-7.77588a23.98093,23.98093,0,0,1-2.97656-2.688q-.76611-.76758-1.53516-1.53613-.76758-.76684-1.53613-1.63184-.38232-.47973-.57617-.76807c-.12793-.19189-.25488-.38427-.38379-.57617-.12793-.19189-.15918-.28808-.09668-.28808a4.9528,4.9528,0,0,0,2.40039-1.15186,7.1983,7.1983,0,0,0,1.584-2.064,11.48186,11.48186,0,0,0,.96-2.54395q.3369-1.34327.52832-2.5918a38.6974,38.6974,0,0,0,.43164-5.13623q.04688-2.63891-.14356-5.23193-.09668-1.91969-.24023-3.88818-.14357-1.96656-.14453-3.8877v-8.73633h-9.69532a1.15575,1.15575,0,0,1-.8164-.52783c-.28809-.35107-.49512-.59082-.624-.72021a33.30375,33.30375,0,0,1-2.59179-3.64795,43.40249,43.40249,0,0,1-2.30371-3.83985c-.19239-.31933-.35157-.60742-.48047-.86426-.25489-.63867-.31934-.96-.19239-.96h16.6084v-.91162a4.62677,4.62677,0,0,0-.0957-.91211c0-.063.0957-.04785.28809.04786a4.99989,4.99989,0,0,1,.624.38427q.33545.24024.81543.52783a10.87579,10.87579,0,0,0,1.05664.86377h8.73535c.25488,0,.52832.19239.81641.57618a8.13383,8.13383,0,0,0,.624.76806q.6709.86426,1.2959,1.77588.62256.91333,1.2959,1.87207.57568.86426,1.20019,1.82422A20.03184,20.03184,0,0,1,858.82715,337.55908Z" transform="translate(-494.03912 -278.90283)"/></svg>